<?xml version="1.0" standalone="no"?>
<!DOCTYPE svg PUBLIC "-//W3C//DTD SVG 20010904//EN"
 "http://www.w3.org/TR/2001/REC-SVG-20010904/DTD/svg10.dtd">
<svg version="1.0" xmlns="http://www.w3.org/2000/svg"
 width="614.000000pt" height="276.000000pt" viewBox="0 0 614.000000 276.000000"
 preserveAspectRatio="xMidYMid meet">

<g transform="translate(0.000000,276.000000) scale(0.100000,-0.100000)"
fill="#000000" stroke="none">
<path d="M2884 2435 c-108 -19 -181 -43 -280 -90 -432 -207 -669 -686 -573
-1158 29 -145 33 -151 97 -155 28 -2 52 -2 52 0 0 2 -11 39 -25 82 -38 123
-51 253 -37 378 25 232 116 421 280 580 129 126 265 202 442 249 109 28 317
31 425 5 389 -93 673 -394 735 -778 18 -109 8 -302 -20 -398 -38 -133 -40
-122 21 -118 l54 3 22 78 c169 595 -223 1215 -836 1322 -100 18 -260 18 -357
0z"/>
<path d="M3013 1884 c-8 -4 -13 -26 -13 -60 0 -70 -20 -72 -49 -4 -23 54 -25
54 -101 15 l-29 -15 20 -47 c28 -66 11 -79 -41 -28 l-40 39 -42 -42 -42 -42
39 -40 c49 -50 39 -69 -23 -44 -23 9 -48 14 -54 11 -7 -2 -21 -26 -30 -52
l-18 -47 50 -21 c67 -28 65 -45 -7 -49 l-58 -3 0 -55 0 -55 58 -3 c71 -4 77
-24 14 -52 -23 -11 -46 -22 -49 -25 -8 -8 32 -105 43 -105 4 0 28 9 54 20 40
17 46 18 52 4 3 -10 -9 -30 -33 -55 l-39 -40 33 -30 c40 -36 61 -37 92 -4 13
14 32 25 43 25 15 0 18 -5 13 -25 -8 -30 9 -33 24 -6 15 29 13 35 -17 53 -28
17 -28 16 -65 -19 l-38 -37 -25 24 -25 24 37 38 c34 35 36 39 23 63 -16 29
-27 31 -77 10 -47 -20 -47 -20 -60 16 -12 30 -12 31 38 51 35 15 48 25 44 35
-3 8 -5 23 -5 34 0 16 -7 19 -55 19 l-55 0 0 35 0 35 55 0 c48 0 55 3 55 19 0
11 3 26 6 35 4 11 -8 21 -44 36 -49 21 -50 23 -40 51 11 33 21 35 71 14 46
-19 44 -20 63 11 17 25 16 26 -21 64 -38 39 -38 40 -20 60 24 27 36 25 70 -10
33 -35 45 -37 75 -12 21 17 21 19 6 56 -22 53 -20 63 13 74 28 10 30 9 49 -39
22 -52 26 -55 66 -39 23 8 26 15 26 60 l0 50 35 0 35 0 0 -54 c0 -52 1 -54 32
-60 17 -3 32 -5 33 -4 1 2 12 25 23 51 l21 48 30 -16 31 -15 -20 -49 -19 -49
24 -16 c33 -21 34 -21 75 19 l36 35 24 -25 24 -25 -38 -39 c-37 -38 -38 -39
-21 -65 20 -31 18 -30 73 -9 45 17 55 13 66 -24 6 -18 0 -25 -39 -42 -31 -14
-45 -26 -45 -40 0 -43 10 -51 66 -51 l54 0 0 -35 0 -34 -57 -3 c-57 -3 -58 -4
-61 -34 -3 -27 1 -32 40 -49 24 -11 45 -20 47 -22 4 -3 -20 -63 -26 -63 -2 0
-20 7 -40 15 -48 20 -58 19 -77 -10 -16 -24 -15 -26 20 -65 36 -39 36 -41 19
-60 -25 -27 -36 -25 -75 15 l-33 34 -28 -20 c-25 -18 -27 -23 -17 -44 13 -30
33 -33 25 -5 -9 36 17 42 48 10 16 -17 38 -30 50 -30 21 0 75 47 75 65 0 5
-17 26 -37 47 -31 31 -34 38 -20 44 10 3 35 -1 57 -10 22 -9 43 -16 46 -16 6
0 43 81 44 96 0 6 -22 21 -50 32 -37 15 -48 25 -44 36 5 12 20 16 61 16 l54 0
-3 58 -3 57 -54 5 c-30 3 -56 10 -58 15 -2 6 19 19 47 29 27 10 50 21 50 25 0
22 -36 101 -47 101 -7 0 -31 -7 -53 -16 -58 -23 -69 -7 -25 36 19 19 35 38 35
44 0 6 -17 27 -37 48 l-37 38 -37 -36 c-24 -23 -43 -34 -53 -31 -14 6 -13 12
4 52 11 26 20 50 20 54 0 9 -78 41 -97 41 -7 0 -21 -20 -32 -45 -29 -65 -49
-60 -53 13 l-3 57 -45 2 c-25 1 -51 0 -57 -3z"/>
<path d="M2956 1680 c-84 -33 -85 -38 -18 -106 l59 -59 66 0 66 0 56 55 c30
30 55 60 55 66 0 7 -21 22 -46 35 -66 32 -173 36 -238 9z m212 -25 l44 -18
-48 -48 c-46 -47 -51 -49 -104 -49 -53 0 -58 2 -99 44 -24 24 -40 49 -37 55
12 19 100 41 151 37 28 -2 69 -12 93 -21z"/>
<path d="M2805 1556 c-60 -91 -58 -244 3 -324 l17 -22 60 60 59 60 1 65 0 65
-61 61 -62 61 -17 -26z m73 -59 c39 -40 42 -47 42 -98 0 -52 -2 -57 -50 -104
l-49 -49 -17 40 c-23 52 -24 167 -2 217 10 20 21 37 25 37 5 0 28 -19 51 -43z"/>
<path d="M3235 1520 l-59 -59 1 -63 1 -63 58 -58 c32 -31 63 -56 69 -54 5 2
21 25 34 51 35 70 34 171 -2 249 -14 31 -30 57 -34 57 -5 0 -35 -27 -68 -60z
m85 -7 c7 -16 15 -60 18 -99 4 -58 1 -80 -17 -119 l-22 -49 -47 47 c-47 46
-48 49 -47 103 2 51 5 59 46 100 24 24 46 44 49 44 4 0 13 -12 20 -27z"/>
<path d="M3033 1448 c-51 -25 -31 -108 27 -108 15 0 36 7 44 16 24 23 20 70
-6 88 -26 18 -35 19 -65 4z m62 -39 c9 -28 -16 -53 -44 -44 -20 6 -29 43 -14
58 15 15 52 6 58 -14z"/>
<path d="M3054 1282 c-59 -3 -62 -4 -120 -63 l-59 -60 25 -19 c29 -22 123 -50
166 -50 44 0 128 27 156 50 l23 19 -65 63 -65 63 -61 -3z m111 -72 c36 -35 42
-47 33 -56 -39 -35 -169 -45 -238 -18 -22 9 -40 19 -40 22 0 4 20 27 45 52 42
43 47 45 100 44 52 -1 59 -4 100 -44z"/>
<path d="M2955 1040 c-4 -6 8 -10 30 -10 22 0 34 4 30 10 -3 6 -17 10 -30 10
-13 0 -27 -4 -30 -10z"/>
<path d="M3110 1040 c-11 -7 -5 -10 23 -10 20 0 37 5 37 10 0 13 -40 13 -60 0z"/>
<path d="M2828 703 l-48 -4 0 -150 0 -149 34 0 c34 0 35 1 38 48 l3 47 42 3
c41 3 43 1 75 -47 30 -46 37 -51 71 -51 44 0 45 8 10 60 l-26 41 23 24 c18 20
24 37 24 75 0 96 -52 118 -246 103z m160 -75 c18 -18 14 -46 -8 -58 -11 -6
-44 -10 -73 -8 -46 3 -52 6 -55 26 -7 44 4 52 66 52 32 0 63 -5 70 -12z"/>
<path d="M4119 699 c-20 -6 -50 -24 -65 -40 -27 -28 -29 -36 -29 -109 0 -77 1
-81 33 -112 31 -31 37 -33 117 -37 118 -4 135 1 135 43 l0 34 -42 -10 c-61
-14 -138 -5 -155 18 -17 24 -17 105 1 130 13 17 26 19 105 18 l91 -2 0 28 c0
16 -7 30 -15 34 -31 12 -141 15 -176 5z"/>
<path d="M1437 556 c-37 -80 -67 -147 -67 -150 0 -4 16 -6 35 -6 28 0 37 5 50
30 15 29 17 30 91 30 74 0 75 0 85 -30 9 -25 16 -30 45 -30 22 0 34 5 34 14 0
7 -29 75 -65 150 l-64 136 -39 0 -38 0 -67 -144z m134 15 c9 -22 15 -42 11
-45 -3 -3 -23 -6 -44 -6 -36 0 -39 2 -32 23 11 37 35 79 41 73 3 -3 14 -23 24
-45z"/>
<path d="M1830 550 l0 -150 40 0 39 0 3 87 3 87 43 -57 c23 -31 49 -57 57 -57
8 0 35 27 60 61 l45 61 0 -91 0 -91 40 0 40 0 0 150 0 150 -40 0 c-38 0 -41
-3 -90 -75 -28 -41 -53 -75 -55 -75 -2 0 -27 34 -55 75 -49 72 -52 75 -90 75
l-40 0 0 -150z"/>
<path d="M2384 564 c-35 -75 -64 -142 -64 -150 0 -9 11 -14 34 -14 29 0 36 5
45 30 10 30 11 30 85 30 74 0 76 -1 91 -30 13 -25 22 -30 50 -30 19 0 35 3 35
6 0 3 -30 70 -67 150 l-67 144 -39 0 -38 0 -65 -136z m129 4 c9 -20 13 -39 9
-42 -8 -9 -70 -7 -75 2 -7 12 34 95 43 86 4 -5 15 -26 23 -46z"/>
<path d="M3190 665 l0 -35 60 0 60 0 0 -115 0 -115 35 0 35 0 0 115 0 115 60
0 60 0 0 35 0 35 -155 0 -155 0 0 -35z"/>
<path d="M3620 550 l0 -150 140 0 140 0 0 35 0 35 -100 0 c-93 0 -100 1 -100
20 0 17 8 19 78 22 l77 3 3 33 3 32 -80 0 c-80 0 -81 0 -81 25 l0 25 100 0
100 0 0 35 0 35 -140 0 -140 0 0 -150z"/>
<path d="M4430 550 l0 -150 40 0 40 0 0 55 0 55 75 0 75 0 0 -55 0 -55 40 0
40 0 0 151 0 150 -37 -3 -38 -3 -3 -57 -3 -58 -74 0 -75 0 0 60 0 60 -40 0
-40 0 0 -150z"/>
</g>
</svg>
